<svg width="1200" height="260" viewBox="0 0 1200 260" fill="none" xmlns="http://www.w3.org/2000/svg" role="img" aria-labelledby="title desc">
  <title id="title">Vanciety wordmark</title>
  <desc id="desc">Clean Vanciety wordmark with topo map infill</desc>
  <defs>
    <linearGradient id="wordmarkGlow" x1="120" y1="40" x2="1080" y2="220" gradientUnits="userSpaceOnUse">
      <stop offset="0%" stop-color="#FFF3BF"/>
      <stop offset="42%" stop-color="#F7C873"/>
      <stop offset="100%" stop-color="#D97706"/>
    </linearGradient>
    <linearGradient id="wordmarkShadow" x1="80" y1="70" x2="1120" y2="180" gradientUnits="userSpaceOnUse">
      <stop offset="0%" stop-color="#0F172A"/>
      <stop offset="100%" stop-color="#111827"/>
    </linearGradient>
    <pattern id="topoLines" width="88" height="88" patternUnits="userSpaceOnUse">
      <path d="M-20 18C8 4 38 4 66 18C94 32 124 32 152 18" stroke="#F6D8A8" stroke-opacity="0.55" stroke-width="2" fill="none"/>
      <path d="M-20 40C8 26 38 26 66 40C94 54 124 54 152 40" stroke="#F6D8A8" stroke-opacity="0.42" stroke-width="1.8" fill="none"/>
      <path d="M-20 62C8 48 38 48 66 62C94 76 124 76 152 62" stroke="#F6D8A8" stroke-opacity="0.34" stroke-width="1.6" fill="none"/>
      <path d="M-20 84C8 70 38 70 66 84C94 98 124 98 152 84" stroke="#F6D8A8" stroke-opacity="0.26" stroke-width="1.4" fill="none"/>
      <path d="M24 -10C12 16 12 40 24 66C36 92 36 116 24 142" stroke="#FFF7E8" stroke-opacity="0.16" stroke-width="1.4" fill="none"/>
      <path d="M58 -10C46 16 46 40 58 66C70 92 70 116 58 142" stroke="#FFF7E8" stroke-opacity="0.16" stroke-width="1.4" fill="none"/>
    </pattern>
    <mask id="wordmarkMask">
      <rect width="1200" height="260" fill="black"/>
      <text x="78" y="182" fill="white" font-size="138" font-weight="900" font-family="Inter, ui-sans-serif, system-ui, -apple-system, BlinkMacSystemFont, 'Segoe UI', sans-serif" letter-spacing="-6">Vanciety</text>
    </mask>
    <filter id="softGlow" x="0" y="0" width="1200" height="260" filterUnits="userSpaceOnUse" color-interpolation-filters="sRGB">
      <feGaussianBlur stdDeviation="3" result="blur"/>
      <feColorMatrix in="blur" type="matrix" values="1 0 0 0 0  0 1 0 0 0.05  0 0 1 0 0  0 0 0 0.35 0" result="glow"/>
      <feMerge>
        <feMergeNode in="glow"/>
        <feMergeNode in="SourceGraphic"/>
      </feMerge>
    </filter>
  </defs>

  <g filter="url(#softGlow)">
    <rect x="54" y="36" width="1090" height="186" rx="52" fill="rgba(255,255,255,0.02)"/>
    <g mask="url(#wordmarkMask)">
      <rect width="1200" height="260" fill="url(#wordmarkShadow)"/>
      <rect width="1200" height="260" fill="url(#topoLines)" opacity="0.95"/>
      <rect width="1200" height="260" fill="url(#wordmarkGlow)" opacity="0.22"/>
    </g>
    <text x="78" y="182" fill="none" stroke="#F8FAFC" stroke-opacity="0.85" stroke-width="5" font-size="138" font-weight="900" font-family="Inter, ui-sans-serif, system-ui, -apple-system, BlinkMacSystemFont, 'Segoe UI', sans-serif" letter-spacing="-6">Vanciety</text>
    <text x="78" y="182" fill="none" stroke="#D97706" stroke-opacity="0.9" stroke-width="1.5" font-size="138" font-weight="900" font-family="Inter, ui-sans-serif, system-ui, -apple-system, BlinkMacSystemFont, 'Segoe UI', sans-serif" letter-spacing="-6">Vanciety</text>
  </g>
</svg>
